<svg width="897" height="187" viewBox="0 0 897 187" fill="none" xmlns="http://www.w3.org/2000/svg">
<path d="M847.052 145.618C820.066 145.618 798.23 123.782 798.23 96.7961C798.23 69.8101 820.066 47.7681 847.052 47.7681C874.038 47.7681 896.081 69.8101 896.081 96.7961C896.081 123.782 874.038 145.618 847.052 145.618ZM847.052 130.168C865.592 130.168 880.63 115.13 880.63 96.7961C880.63 78.2561 865.592 63.2181 847.052 63.2181C828.718 63.2181 813.68 78.2561 813.68 96.7961C813.68 115.13 828.718 130.168 847.052 130.168Z" fill="#7FBA00"/>
<path d="M746.187 47.562C767.817 47.562 785.533 65.072 785.533 86.908V137.172C785.533 141.498 782.031 145 777.705 145C773.173 145 769.671 141.498 769.671 137.172V86.908C769.671 73.518 758.959 63.012 746.187 63.012C733.003 63.012 722.497 73.518 722.497 86.908V137.172C722.497 141.498 718.995 145 714.669 145C710.137 145 706.841 141.498 706.841 137.172V86.908C706.841 73.518 696.129 63.012 683.151 63.012C670.173 63.012 659.667 73.518 659.667 86.908V137.172C659.667 141.498 655.959 145 651.633 145C647.307 145 643.805 141.498 643.805 137.172V86.908C643.805 65.072 661.315 47.562 683.151 47.562C695.923 47.562 707.459 53.742 714.669 63.218C721.879 53.742 733.209 47.562 746.187 47.562Z" fill="#00A4EF"/>
<path d="M579.896 145.618C552.91 145.618 531.074 123.782 531.074 96.7961C531.074 69.8101 552.91 47.7681 579.896 47.7681C606.882 47.7681 628.924 69.8101 628.924 96.7961C628.924 123.782 606.882 145.618 579.896 145.618ZM579.896 130.168C598.436 130.168 613.474 115.13 613.474 96.7961C613.474 78.2561 598.436 63.2181 579.896 63.2181C561.562 63.2181 546.524 78.2561 546.524 96.7961C546.524 115.13 561.562 130.168 579.896 130.168Z" fill="#FFB900"/>
<path d="M447.445 145C443.325 145 439.617 141.498 439.617 137.172V89.7919C439.617 66.3079 458.775 47.1499 482.259 47.1499C500.387 47.1499 516.455 58.6859 522.429 75.9899C523.871 80.1099 521.811 84.6419 517.691 85.8779C513.571 87.3199 509.039 85.0539 507.597 80.9339C503.889 70.0159 493.795 62.8059 482.259 62.8059C467.221 62.8059 455.273 74.7539 455.273 89.7919V137.172C455.273 141.498 451.771 145 447.445 145Z" fill="#F25022"/>
<path d="M376.974 47.356C404.166 47.356 426.002 69.398 426.002 96.178C426.002 123.37 404.166 145.206 376.974 145.206C363.584 145.206 351.43 139.85 342.572 130.992V178.784C342.572 183.11 339.276 186.406 335.362 186.406C331.448 186.406 328.152 183.11 328.152 178.784V97.62V97.208C328.152 96.796 328.152 96.59 328.152 96.178C328.152 69.398 350.194 47.356 376.974 47.356ZM376.974 129.756C395.514 129.756 410.346 114.718 410.346 96.178C410.346 77.844 395.514 62.806 376.974 62.806C358.64 62.806 343.602 77.844 343.602 96.178C343.602 114.718 358.64 129.756 376.974 129.756Z" fill="#00A4EF"/>
<path d="M301.409 145.206C296.053 145.206 291.727 140.674 291.727 135.112C291.727 129.962 296.053 125.636 301.409 125.636C306.765 125.636 311.091 129.962 311.091 135.112C311.091 140.674 306.765 145.206 301.409 145.206Z" fill="#737373"/>
<path d="M270.381 129.344C274.707 129.344 278.209 132.846 278.209 137.172C278.209 141.498 274.707 145 270.381 145H267.291C245.455 145 220.941 130.992 220.941 95.5598V8.6278C220.941 4.30181 224.443 0.799805 228.769 0.799805C233.095 0.799805 236.597 4.30181 236.597 8.6278V47.9738H265.231C269.145 47.9738 272.441 51.2698 272.441 55.1838C272.441 59.3038 269.145 62.5998 265.231 62.5998H236.597V95.5598C236.597 117.19 249.575 129.344 267.291 129.344H270.381Z" fill="#737373"/>
<path d="M202.201 90.5852C201.857 90.8908 201.459 90.9974 201.061 91.1041L131.073 110.071C137.459 124.354 151.773 131.609 168.37 129.081C177.79 127.623 189.37 123.881 198.046 110.893C201.254 108.54 205.539 107.818 208.091 110.974C210.788 113.876 210.064 118.336 207.015 121.285C200.315 132.891 187.758 140.947 170.166 143.742C143.857 148.232 120.763 132.88 114.205 108.405C107.274 82.538 122.569 56.0468 148.635 49.0623C174.105 42.2377 199.732 56.6975 206.45 81.7691C207.41 85.3507 205.424 89.0819 202.201 90.5852ZM152.314 62.7919C136.396 67.0573 126.05 81.7724 128.087 98.9276L190.368 82.2395C184.564 66.9466 168.631 58.42 152.314 62.7919Z" fill="#737373"/>
<path d="M98.4409 96.5901V96.7961V137.378C98.4409 162.922 79.2829 183.522 52.9149 186.2C50.6489 186.406 48.1769 186.406 45.4989 186.406C36.6409 186.406 26.9589 184.758 17.6889 178.99C13.5689 177.136 12.1269 172.604 13.5689 168.69C15.4229 164.982 19.9549 162.922 23.8689 164.776C34.1689 171.368 44.4689 171.368 51.4729 170.544C69.3949 168.896 82.7849 155.712 82.7849 137.378V132.64C74.1329 140.674 62.3909 145.412 49.6189 145.412C22.8389 145.412 0.796875 123.576 0.796875 96.5901C0.796875 69.8101 22.8389 47.9741 49.6189 47.9741C76.3989 47.9741 98.4409 69.8101 98.4409 96.5901ZM49.6189 129.962C67.9529 129.962 82.7849 115.13 82.7849 96.5901C82.7849 78.2561 67.9529 63.4241 49.6189 63.4241C31.4909 63.4241 16.4529 78.2561 16.4529 96.5901C16.4529 115.13 31.4909 129.962 49.6189 129.962Z" fill="#737373"/>
</svg>
